<svg xmlns="http://www.w3.org/2000/svg" width="1070" height="530" viewBox="0 0 1070 530" font-family="Segoe UI, Helvetica, Arial, sans-serif">
<rect width="1070" height="530" fill="#ffffff"/>
<defs><pattern id="hatch" width="6" height="6" patternUnits="userSpaceOnUse" patternTransform="rotate(45)"><rect width="6" height="6" fill="white"/><line x1="0" y1="0" x2="0" y2="6" stroke="#000" stroke-opacity="0.55" stroke-width="2.4"/></pattern></defs>
<text x="64" y="30" font-size="19" font-weight="600" fill="#1f2328">Server: time to first token with a cached prefix</text>
<text x="64" y="52" font-size="12.5" fill="#57606a">seconds, lower is better; warm = new conversation reusing a 26k-token system prompt; SSD restore = 26k session after a server restart (llama.cpp: no persistent cache)</text>
<text x="226.0" y="80" font-size="13.5" font-weight="600" text-anchor="middle" fill="#1f2328">Swift-1.5 27B MXFP4 (dense)</text>
<line x1="74" x2="378" y1="452.0" y2="452.0" stroke="#d0d7de" stroke-width="1"/>
<text x="69" y="456.0" font-size="10.5" text-anchor="end" fill="#57606a">0</text>
<line x1="74" x2="378" y1="380.0" y2="380.0" stroke="#d0d7de" stroke-width="1"/>
<text x="69" y="384.0" font-size="10.5" text-anchor="end" fill="#57606a">0.24</text>
<line x1="74" x2="378" y1="308.0" y2="308.0" stroke="#d0d7de" stroke-width="1"/>
<text x="69" y="312.0" font-size="10.5" text-anchor="end" fill="#57606a">0.48</text>
<line x1="74" x2="378" y1="236.0" y2="236.0" stroke="#d0d7de" stroke-width="1"/>
<text x="69" y="240.0" font-size="10.5" text-anchor="end" fill="#57606a">0.72</text>
<line x1="74" x2="378" y1="164.0" y2="164.0" stroke="#d0d7de" stroke-width="1"/>
<text x="69" y="168.0" font-size="10.5" text-anchor="end" fill="#57606a">0.96</text>
<line x1="74" x2="378" y1="92.0" y2="92.0" stroke="#d0d7de" stroke-width="1"/>
<text x="69" y="96.0" font-size="10.5" text-anchor="end" fill="#57606a">1.20</text>
<rect x="125.0" y="419.6" width="24.0" height="32.4" fill="#1f6feb"/>
<text x="137.0" y="415.6" font-size="9" text-anchor="start" fill="#1f2328" transform="rotate(-90 140.0 415.6)">0.11</text>
<rect x="151.0" y="336.8" width="24.0" height="115.2" fill="#d9480f"/>
<text x="163.0" y="332.8" font-size="9" text-anchor="start" fill="#1f2328" transform="rotate(-90 166.0 332.8)">0.38</text>
<text x="150.0" y="469" font-size="11.5" text-anchor="middle" fill="#1f2328">warm 26k</text>
<rect x="277.0" y="268.1" width="24.0" height="183.9" fill="#1f6feb"/>
<text x="289.0" y="264.1" font-size="9" text-anchor="start" fill="#1f2328" transform="rotate(-90 292.0 264.1)">0.61</text>
<text x="315.0" y="448" font-size="8.5" text-anchor="middle" fill="#57606a" transform="rotate(-90 315.0 448)">N/A</text>
<text x="302.0" y="469" font-size="11.5" text-anchor="middle" fill="#1f2328">SSD restore</text>
<line x1="74" x2="378" y1="452" y2="452" stroke="#57606a" stroke-width="1"/>
<text x="556.0" y="80" font-size="13.5" font-weight="600" text-anchor="middle" fill="#1f2328">Ornith-1.5-35B-A3B MXFP4 (MoE)</text>
<line x1="404" x2="708" y1="452.0" y2="452.0" stroke="#d0d7de" stroke-width="1"/>
<text x="399" y="456.0" font-size="10.5" text-anchor="end" fill="#57606a">0</text>
<line x1="404" x2="708" y1="380.0" y2="380.0" stroke="#d0d7de" stroke-width="1"/>
<text x="399" y="384.0" font-size="10.5" text-anchor="end" fill="#57606a">0.24</text>
<line x1="404" x2="708" y1="308.0" y2="308.0" stroke="#d0d7de" stroke-width="1"/>
<text x="399" y="312.0" font-size="10.5" text-anchor="end" fill="#57606a">0.48</text>
<line x1="404" x2="708" y1="236.0" y2="236.0" stroke="#d0d7de" stroke-width="1"/>
<text x="399" y="240.0" font-size="10.5" text-anchor="end" fill="#57606a">0.72</text>
<line x1="404" x2="708" y1="164.0" y2="164.0" stroke="#d0d7de" stroke-width="1"/>
<text x="399" y="168.0" font-size="10.5" text-anchor="end" fill="#57606a">0.96</text>
<line x1="404" x2="708" y1="92.0" y2="92.0" stroke="#d0d7de" stroke-width="1"/>
<text x="399" y="96.0" font-size="10.5" text-anchor="end" fill="#57606a">1.20</text>
<rect x="455.0" y="422.6" width="24.0" height="29.4" fill="#1f6feb"/>
<text x="467.0" y="418.6" font-size="9" text-anchor="start" fill="#1f2328" transform="rotate(-90 470.0 418.6)">0.10</text>
<rect x="481.0" y="397.4" width="24.0" height="54.6" fill="#d9480f"/>
<text x="493.0" y="393.4" font-size="9" text-anchor="start" fill="#1f2328" transform="rotate(-90 496.0 393.4)">0.18</text>
<text x="480.0" y="469" font-size="11.5" text-anchor="middle" fill="#1f2328">warm 26k</text>
<rect x="607.0" y="356.6" width="24.0" height="95.4" fill="#1f6feb"/>
<text x="619.0" y="352.6" font-size="9" text-anchor="start" fill="#1f2328" transform="rotate(-90 622.0 352.6)">0.32</text>
<text x="645.0" y="448" font-size="8.5" text-anchor="middle" fill="#57606a" transform="rotate(-90 645.0 448)">N/A</text>
<text x="632.0" y="469" font-size="11.5" text-anchor="middle" fill="#1f2328">SSD restore</text>
<line x1="404" x2="708" y1="452" y2="452" stroke="#57606a" stroke-width="1"/>
<text x="886.0" y="80" font-size="13.5" font-weight="600" text-anchor="middle" fill="#1f2328">Qwen3.8-27B Q4_K_M (reference)</text>
<line x1="734" x2="1038" y1="452.0" y2="452.0" stroke="#d0d7de" stroke-width="1"/>
<text x="729" y="456.0" font-size="10.5" text-anchor="end" fill="#57606a">0</text>
<line x1="734" x2="1038" y1="380.0" y2="380.0" stroke="#d0d7de" stroke-width="1"/>
<text x="729" y="384.0" font-size="10.5" text-anchor="end" fill="#57606a">0.24</text>
<line x1="734" x2="1038" y1="308.0" y2="308.0" stroke="#d0d7de" stroke-width="1"/>
<text x="729" y="312.0" font-size="10.5" text-anchor="end" fill="#57606a">0.48</text>
<line x1="734" x2="1038" y1="236.0" y2="236.0" stroke="#d0d7de" stroke-width="1"/>
<text x="729" y="240.0" font-size="10.5" text-anchor="end" fill="#57606a">0.72</text>
<line x1="734" x2="1038" y1="164.0" y2="164.0" stroke="#d0d7de" stroke-width="1"/>
<text x="729" y="168.0" font-size="10.5" text-anchor="end" fill="#57606a">0.96</text>
<line x1="734" x2="1038" y1="92.0" y2="92.0" stroke="#d0d7de" stroke-width="1"/>
<text x="729" y="96.0" font-size="10.5" text-anchor="end" fill="#57606a">1.20</text>
<rect x="785.0" y="415.7" width="24.0" height="36.3" fill="#1f6feb"/>
<text x="797.0" y="411.7" font-size="9" text-anchor="start" fill="#1f2328" transform="rotate(-90 800.0 411.7)">0.12</text>
<rect x="811.0" y="341.3" width="24.0" height="110.7" fill="#d9480f"/>
<text x="823.0" y="337.3" font-size="9" text-anchor="start" fill="#1f2328" transform="rotate(-90 826.0 337.3)">0.37</text>
<text x="810.0" y="469" font-size="11.5" text-anchor="middle" fill="#1f2328">warm 26k</text>
<rect x="937.0" y="250.4" width="24.0" height="201.6" fill="#1f6feb"/>
<text x="949.0" y="246.4" font-size="9" text-anchor="start" fill="#1f2328" transform="rotate(-90 952.0 246.4)">0.67</text>
<text x="975.0" y="448" font-size="8.5" text-anchor="middle" fill="#57606a" transform="rotate(-90 975.0 448)">N/A</text>
<text x="962.0" y="469" font-size="11.5" text-anchor="middle" fill="#1f2328">SSD restore</text>
<line x1="734" x2="1038" y1="452" y2="452" stroke="#57606a" stroke-width="1"/>
<text x="16" y="272.0" font-size="12" fill="#57606a" text-anchor="middle" transform="rotate(-90 16 272.0)">seconds to first token</text>
<rect x="64.0" y="481" width="14" height="14" fill="#1f6feb"/>
<text x="84.0" y="493" font-size="12" fill="#1f2328">WHIRL 0.1.3</text>
<rect x="559.0" y="481" width="14" height="14" fill="#d9480f"/>
<text x="579.0" y="493" font-size="12" fill="#1f2328">llama-server b11214</text>
</svg>